<svg width="19" height="18" viewBox="0 0 19 18" fill="none" xmlns="http://www.w3.org/2000/svg">
<path d="M0.5 2.35403C0.5 1.72971 0.737053 1.13095 1.15901 0.689481C1.58097 0.248014 2.15326 0 2.75 0L16.25 0C16.8467 0 17.419 0.248014 17.841 0.689481C18.2629 1.13095 18.5 1.72971 18.5 2.35403V11.7702C18.5 12.3945 18.2629 12.9933 17.841 13.4347C17.419 13.8762 16.8467 14.1242 16.25 14.1242H5.46575C5.16741 14.1243 4.8813 14.2483 4.67037 14.4691L1.46075 17.8271C1.38215 17.9095 1.28193 17.9657 1.17279 17.9886C1.06365 18.0114 0.950486 17.9999 0.847624 17.9554C0.744763 17.9109 0.656827 17.8355 0.594947 17.7387C0.533067 17.6419 0.500024 17.5281 0.5 17.4116V2.35403ZM6.125 7.0621C6.125 6.74994 6.00647 6.45056 5.7955 6.22983C5.58452 6.00909 5.29837 5.88509 5 5.88509C4.70163 5.88509 4.41548 6.00909 4.2045 6.22983C3.99353 6.45056 3.875 6.74994 3.875 7.0621C3.875 7.37427 3.99353 7.67365 4.2045 7.89438C4.41548 8.11511 4.70163 8.23912 5 8.23912C5.29837 8.23912 5.58452 8.11511 5.7955 7.89438C6.00647 7.67365 6.125 7.37427 6.125 7.0621ZM10.625 7.0621C10.625 6.74994 10.5065 6.45056 10.2955 6.22983C10.0845 6.00909 9.79837 5.88509 9.5 5.88509C9.20163 5.88509 8.91548 6.00909 8.7045 6.22983C8.49353 6.45056 8.375 6.74994 8.375 7.0621C8.375 7.37427 8.49353 7.67365 8.7045 7.89438C8.91548 8.11511 9.20163 8.23912 9.5 8.23912C9.79837 8.23912 10.0845 8.11511 10.2955 7.89438C10.5065 7.67365 10.625 7.37427 10.625 7.0621ZM14 8.23912C14.2984 8.23912 14.5845 8.11511 14.7955 7.89438C15.0065 7.67365 15.125 7.37427 15.125 7.0621C15.125 6.74994 15.0065 6.45056 14.7955 6.22983C14.5845 6.00909 14.2984 5.88509 14 5.88509C13.7016 5.88509 13.4155 6.00909 13.2045 6.22983C12.9935 6.45056 12.875 6.74994 12.875 7.0621C12.875 7.37427 12.9935 7.67365 13.2045 7.89438C13.4155 8.11511 13.7016 8.23912 14 8.23912Z" fill="#B2B2B2"/>
</svg>
