<svg width="18" height="18" viewBox="0 0 18 18" fill="none" xmlns="http://www.w3.org/2000/svg">
<path fill-rule="evenodd" clip-rule="evenodd" d="M12.958 4.40981C15.2465 6.8063 15.159 10.6043 12.7626 12.8928C10.3661 15.1814 6.5681 15.0939 4.27954 12.6974C1.99097 10.301 2.07846 6.50298 4.47494 4.21441C6.87142 1.92585 10.6694 2.01333 12.958 4.40981ZM14.8243 13.6039C17.3384 10.5225 17.2219 5.97893 14.4044 3.02854C11.353 -0.166769 6.28898 -0.283415 3.09367 2.76801C-0.101644 5.81943 -0.218291 10.8834 2.83313 14.0787C5.65066 17.0291 10.184 17.3547 13.3779 14.9851L15.4925 17.1995C15.874 17.5989 16.507 17.6135 16.9064 17.2321C17.3058 16.8506 17.3204 16.2176 16.9389 15.8182L14.8243 13.6039Z" fill="#B2B2B2"/>
</svg>
